<svg width="26" height="25" viewBox="0 0 26 25" fill="none" xmlns="http://www.w3.org/2000/svg">
<path d="M23.5476 0C24.4887 0 25.2601 0.728571 25.3288 1.65268L25.3333 1.78571V23.2143C25.3333 24.1554 24.6047 24.9268 23.6806 24.9946L23.5476 25H2.11903C1.17796 25 0.406527 24.2714 0.337777 23.3473L0.333313 23.2143V1.78571C0.333313 0.844643 1.06188 0.0732141 1.98599 0.00446439L2.11903 0H23.5476ZM12.8333 4.38839L10.078 7.14286H2.11903V23.2143H9.26188V18.75C9.26188 17.8089 9.99046 17.0375 10.9146 16.9688L11.0476 16.9643H14.619C15.5601 16.9643 16.3315 17.6929 16.4003 18.617L16.4047 18.75V23.2143H23.5476V7.14286H15.5887L12.8333 4.38839ZM14.619 18.75H11.0476V23.2143H14.619V18.75ZM19.9762 16.9643C20.469 16.9643 20.869 17.3643 20.869 17.8571C20.869 18.35 20.469 18.75 19.9762 18.75C19.4833 18.75 19.0833 18.35 19.0833 17.8571C19.0833 17.3643 19.4833 16.9643 19.9762 16.9643ZM5.69046 16.9643C6.18331 16.9643 6.58331 17.3643 6.58331 17.8571C6.58331 18.35 6.18331 18.75 5.69046 18.75C5.1976 18.75 4.7976 18.35 4.7976 17.8571C4.7976 17.3643 5.1976 16.9643 5.69046 16.9643ZM19.9762 13.3929C20.469 13.3929 20.869 13.7929 20.869 14.2857C20.869 14.7786 20.469 15.1786 19.9762 15.1786C19.4833 15.1786 19.0833 14.7786 19.0833 14.2857C19.0833 13.7929 19.4833 13.3929 19.9762 13.3929ZM5.69046 13.3929C6.18331 13.3929 6.58331 13.7929 6.58331 14.2857C6.58331 14.7786 6.18331 15.1786 5.69046 15.1786C5.1976 15.1786 4.7976 14.7786 4.7976 14.2857C4.7976 13.7929 5.1976 13.3929 5.69046 13.3929ZM19.9762 9.82143C20.469 9.82143 20.869 10.2214 20.869 10.7143C20.869 11.2071 20.469 11.6071 19.9762 11.6071C19.4833 11.6071 19.0833 11.2071 19.0833 10.7143C19.0833 10.2214 19.4833 9.82143 19.9762 9.82143ZM12.8333 9.82143C13.3262 9.82143 13.7262 10.2214 13.7262 10.7143C13.7262 11.2071 13.3262 11.6071 12.8333 11.6071C12.3405 11.6071 11.9405 11.2071 11.9405 10.7143C11.9405 10.2214 12.3405 9.82143 12.8333 9.82143ZM5.69046 9.82143C6.18331 9.82143 6.58331 10.2214 6.58331 10.7143C6.58331 11.2071 6.18331 11.6071 5.69046 11.6071C5.1976 11.6071 4.7976 11.2071 4.7976 10.7143C4.7976 10.2214 5.1976 9.82143 5.69046 9.82143ZM23.5476 5.35714V1.78571H2.11903V5.35714H9.33688L11.5708 3.125C12.2315 2.46429 13.2806 2.42946 13.9824 3.02054L14.0958 3.125L16.3288 5.35714H23.5476Z" fill="#717171"/>
</svg>
