<svg width="549" height="96" viewBox="0 0 549 96" fill="none" xmlns="http://www.w3.org/2000/svg">
<path d="M87.8216 67.8694C87.3928 66.6656 86.8916 65.501 86.4149 64.4219C85.6809 62.762 84.9123 61.0989 84.1688 59.4914L84.1099 59.3638C77.4787 45.0037 70.3612 30.4473 62.9557 16.0991L62.6413 15.4899C61.8858 14.0248 61.1049 12.5098 60.3034 11.0212C59.353 9.13738 58.1998 7.3625 56.8642 5.72802C55.3607 3.93441 53.4812 2.49189 51.3585 1.50219C49.2357 0.512488 46.9211 -0.000294057 44.5781 1.26509e-07C42.2351 0.00029431 39.9208 0.513657 37.7981 1.50389C35.6757 2.49413 33.7965 3.93713 32.2936 5.7311C30.9595 7.36596 29.8069 9.14045 28.8562 11.0234C28.0478 12.5253 27.2596 14.0543 26.4973 15.533L26.2054 16.099C18.7996 30.4482 11.6822 45.0046 5.05103 59.3635L4.95441 59.5724C4.22378 61.1539 3.46838 62.7892 2.74666 64.4213C2.26974 65.4995 1.76923 66.6632 1.33991 67.87C0.110295 71.1577 -0.28153 74.6988 0.199662 78.175C0.709957 81.688 2.13083 85.0073 4.32157 87.8037C6.5123 90.6 9.3969 92.7766 12.6896 94.1178C15.1767 95.124 17.836 95.6384 20.5196 95.6324C21.3626 95.6321 22.2049 95.5831 23.0422 95.4856C26.4364 95.0532 29.7099 93.9487 32.6707 92.2371C36.5546 90.0552 40.3903 86.8575 44.5805 82.2881C48.7707 86.8575 52.6065 90.0552 56.4903 92.2371C59.4511 93.949 62.7247 95.0532 66.1187 95.4856C66.9561 95.5831 67.7986 95.6321 68.6416 95.6324C71.325 95.6384 73.9839 95.124 76.4709 94.1178C79.7637 92.7766 82.6485 90.6 84.8394 87.8037C87.0303 85.0073 88.4513 81.6883 88.9617 78.175C89.4423 74.6985 89.0505 71.1574 87.8216 67.8694ZM44.5805 72.851C39.3934 66.2759 36.0648 60.1701 34.8969 55.0514C34.4184 53.1334 34.3054 51.1427 34.5639 49.1828C34.7681 47.7463 35.2958 46.3745 36.1075 45.1708C37.1063 43.8755 38.3898 42.8266 39.859 42.1048C41.3281 41.3834 42.9437 41.0081 44.5811 41.0081C46.2188 41.0084 47.8341 41.3837 49.3033 42.1057C50.7724 42.8275 52.0557 43.8764 53.0545 45.1717C53.8661 46.376 54.3939 47.7478 54.598 49.1846C54.8559 51.1454 54.7427 53.1366 54.2633 55.0553C53.0942 60.1734 49.7665 66.2774 44.5805 72.851ZM82.9031 77.3095C82.5463 79.7658 81.5526 82.0867 80.021 84.0417C78.4891 85.9971 76.4721 87.5192 74.1698 88.457C71.8417 89.3897 69.3153 89.7202 66.8252 89.4178C64.2369 89.0843 61.7424 88.2325 59.492 86.9131C56.0349 84.9709 52.5354 81.9892 48.5974 77.6152C54.8664 69.8852 58.781 62.7603 60.2305 56.4141C60.8829 53.7454 61.0242 50.9777 60.6474 48.257C60.3055 45.9131 59.4352 43.6771 58.1024 41.7175C56.5409 39.6035 54.5039 37.8848 52.1555 36.7004C49.8068 35.5161 47.2125 34.8989 44.5811 34.8989C41.95 34.8989 39.3554 35.5158 37.0067 36.6998C34.6581 37.8839 32.6211 39.6023 31.0596 41.7163C29.7269 43.6753 28.8568 45.9107 28.5146 48.254C28.1376 50.9739 28.2782 53.74 28.9291 56.4079C30.3776 62.7567 34.2926 69.8834 40.5637 77.6158C36.6257 81.9892 33.1262 84.9709 29.669 86.9134C27.4186 88.2325 24.9244 89.0846 22.336 89.4178C19.8457 89.7202 17.3192 89.3897 14.991 88.457C12.6887 87.5192 10.6717 85.9971 9.14001 84.042C7.6083 82.0867 6.61492 79.7658 6.25827 77.3095C5.91522 74.8126 6.20717 72.2697 7.10722 69.915C7.44934 68.9533 7.84972 68.0096 8.34572 66.8883C9.04742 65.302 9.79207 63.6897 10.5124 62.1306L10.6091 61.9211C17.2032 47.6426 24.2811 33.1671 31.6466 18.8962L31.9397 18.328C32.6895 16.8732 33.4651 15.3689 34.2475 13.9154C34.9958 12.4173 35.9016 11.0028 36.9497 9.69593C37.8782 8.57413 39.0437 7.67094 40.3625 7.05092C41.6817 6.43086 43.1215 6.1093 44.5793 6.10918C46.0371 6.10906 47.4773 6.43041 48.7961 7.05023C50.1153 7.67005 51.2808 8.57305 52.2096 9.6947C53.2583 11.0006 54.1644 12.4146 54.9121 13.9127C55.6873 15.3532 56.456 16.8439 57.1995 18.2854L57.5145 18.8968C64.8797 33.1662 71.9574 47.6414 78.5521 61.9223L78.6116 62.0508C79.3444 63.6362 80.102 65.2748 80.8153 66.8889C81.312 68.0117 81.7131 68.9563 82.0544 69.9144C82.9539 72.2694 83.2459 74.8123 82.9031 77.3095Z" fill="#590BD8"/>
<path d="M147.812 41.7609H142.014V68H133.527V41.7609H129.761V34.8873H133.527V33.2137C133.527 29.1493 134.682 26.1608 136.993 24.2482C139.305 22.3355 142.791 21.439 147.453 21.5585V28.6114C145.421 28.5716 144.006 28.9103 143.209 29.6275C142.413 30.3447 142.014 31.6398 142.014 33.5126V34.8873H147.812V41.7609ZM184.494 34.8873V68H176.067V63.8161C174.991 65.2506 173.576 66.3862 171.823 67.223C170.11 68.0199 168.237 68.4184 166.205 68.4184C163.615 68.4184 161.323 67.8805 159.331 66.8046C157.339 65.6889 155.765 64.0751 154.609 61.9632C153.494 59.8115 152.936 57.2613 152.936 54.3126V34.8873H161.304V53.1172C161.304 55.7471 161.961 57.7793 163.276 59.2138C164.591 60.6084 166.384 61.3057 168.655 61.3057C170.966 61.3057 172.779 60.6084 174.094 59.2138C175.409 57.7793 176.067 55.7471 176.067 53.1172V34.8873H184.494ZM201.118 23.77V68H192.751V23.77H201.118ZM217.754 23.77V68H209.386V23.77H217.754ZM238.692 68.5379C235.983 68.5379 233.552 68.0598 231.4 67.1034C229.249 66.1073 227.535 64.7724 226.26 63.0988C225.025 61.4253 224.348 59.5724 224.228 57.5402H232.656C232.815 58.8153 233.433 59.8712 234.509 60.708C235.624 61.5448 236.999 61.9632 238.633 61.9632C240.227 61.9632 241.462 61.6444 242.338 61.0069C243.255 60.3693 243.713 59.5525 243.713 58.5563C243.713 57.4804 243.155 56.6835 242.04 56.1655C240.964 55.6076 239.23 55.0099 236.84 54.3724C234.369 53.7747 232.337 53.1571 230.743 52.5195C229.189 51.882 227.834 50.9057 226.679 49.5908C225.563 48.2758 225.005 46.5026 225.005 44.2712C225.005 42.4383 225.523 40.7647 226.559 39.2505C227.635 37.7363 229.149 36.5409 231.102 35.6643C233.094 34.7877 235.425 34.3494 238.095 34.3494C242.04 34.3494 245.187 35.3455 247.538 37.3379C249.889 39.2904 251.184 41.9402 251.424 45.2873H243.414C243.295 43.9724 242.737 42.9363 241.741 42.1793C240.784 41.3823 239.489 40.9838 237.856 40.9838C236.341 40.9838 235.166 41.2628 234.329 41.8206C233.532 42.3785 233.134 43.1555 233.134 44.1517C233.134 45.2674 233.692 46.1241 234.807 46.7218C235.923 47.2796 237.656 47.8574 240.007 48.4551C242.398 49.0528 244.371 49.6705 245.925 50.308C247.479 50.9456 248.814 51.9417 249.929 53.2965C251.085 54.6115 251.683 56.3647 251.722 58.5563C251.722 60.4689 251.184 62.1824 250.109 63.6965C249.073 65.2107 247.558 66.4061 245.566 67.2828C243.614 68.1195 241.322 68.5379 238.692 68.5379ZM268.334 41.7609V57.7793C268.334 58.895 268.593 59.7119 269.111 60.2299C269.669 60.708 270.585 60.9471 271.86 60.9471H275.745V68H270.486C263.433 68 259.906 64.5732 259.906 57.7195V41.7609H255.961V34.8873H259.906V26.6988H268.334V34.8873H275.745V41.7609H268.334ZM279.612 51.3241C279.612 47.977 280.27 45.0084 281.585 42.4183C282.939 39.8283 284.752 37.836 287.024 36.4413C289.335 35.0467 291.905 34.3494 294.734 34.3494C297.205 34.3494 299.356 34.8474 301.189 35.8436C303.062 36.8398 304.556 38.095 305.672 39.6091V34.8873H314.1V68H305.672V63.1586C304.596 64.7126 303.102 66.0077 301.189 67.0437C299.316 68.0398 297.145 68.5379 294.674 68.5379C291.885 68.5379 289.335 67.8207 287.024 66.3862C284.752 64.9517 282.939 62.9395 281.585 60.3494C280.27 57.7195 279.612 54.7111 279.612 51.3241ZM305.672 51.4436C305.672 49.4115 305.274 47.6781 304.477 46.2436C303.68 44.7693 302.604 43.6536 301.249 42.8965C299.894 42.0996 298.44 41.7011 296.886 41.7011C295.332 41.7011 293.897 42.0796 292.582 42.8367C291.267 43.5938 290.192 44.7095 289.355 46.1839C288.558 47.6183 288.159 49.3318 288.159 51.3241C288.159 53.3164 288.558 55.0697 289.355 56.5839C290.192 58.0582 291.267 59.1939 292.582 59.9908C293.937 60.7877 295.372 61.1862 296.886 61.1862C298.44 61.1862 299.894 60.8076 301.249 60.0506C302.604 59.2536 303.68 58.1379 304.477 56.7034C305.274 55.2291 305.672 53.4758 305.672 51.4436ZM320.121 51.4436C320.121 48.0168 320.818 45.0283 322.212 42.4781C323.607 39.8881 325.54 37.8957 328.01 36.5011C330.481 35.0666 333.31 34.3494 336.498 34.3494C340.602 34.3494 343.989 35.3854 346.659 37.4574C349.368 39.4896 351.181 42.3586 352.098 46.0643H343.072C342.594 44.6298 341.777 43.5141 340.622 42.7172C339.506 41.8804 338.111 41.462 336.438 41.462C334.047 41.462 332.154 42.3386 330.76 44.0919C329.365 45.8053 328.668 48.2559 328.668 51.4436C328.668 54.5915 329.365 57.0421 330.76 58.7954C332.154 60.5088 334.047 61.3655 336.438 61.3655C339.825 61.3655 342.036 59.8513 343.072 56.823H352.098C351.181 60.4092 349.368 63.2582 346.659 65.3701C343.949 67.482 340.562 68.5379 336.498 68.5379C333.31 68.5379 330.481 67.8406 328.01 66.446C325.54 65.0115 323.607 63.0191 322.212 60.4689C320.818 57.8789 320.121 54.8705 320.121 51.4436ZM377.832 68L366.596 53.8942V68H358.228V23.77H366.596V48.9333L377.713 34.8873H388.591L374.007 51.5034L388.711 68H377.832ZM439.036 34.8873L429.353 68H420.328L414.291 44.8689L408.255 68H399.169L389.427 34.8873H397.914L403.772 60.1103L410.107 34.8873H418.953L425.17 60.0506L431.027 34.8873H439.036ZM474.345 50.7264C474.345 51.9218 474.266 52.9977 474.106 53.954H449.899C450.099 56.3448 450.935 58.2176 452.41 59.5724C453.884 60.9272 455.697 61.6046 457.849 61.6046C460.957 61.6046 463.168 60.2697 464.483 57.6H473.509C472.552 60.7877 470.719 63.4176 468.01 65.4896C465.3 67.5218 461.973 68.5379 458.028 68.5379C454.84 68.5379 451.971 67.8406 449.421 66.446C446.911 65.0115 444.939 62.9992 443.504 60.4092C442.109 57.8191 441.412 54.8306 441.412 51.4436C441.412 48.0168 442.109 45.0084 443.504 42.4183C444.899 39.8283 446.851 37.836 449.362 36.4413C451.872 35.0467 454.761 34.3494 458.028 34.3494C461.176 34.3494 463.985 35.0267 466.456 36.3815C468.966 37.7363 470.899 39.6689 472.254 42.1793C473.648 44.6498 474.345 47.4988 474.345 50.7264ZM465.679 48.3356C465.639 46.1839 464.862 44.4704 463.348 43.1953C461.834 41.8804 459.981 41.2229 457.789 41.2229C455.717 41.2229 453.964 41.8605 452.529 43.1356C451.135 44.3708 450.278 46.1042 449.959 48.3356H465.679ZM511.235 50.7264C511.235 51.9218 511.155 52.9977 510.996 53.954H486.789C486.988 56.3448 487.825 58.2176 489.299 59.5724C490.774 60.9272 492.587 61.6046 494.738 61.6046C497.846 61.6046 500.058 60.2697 501.373 57.6H510.398C509.442 60.7877 507.609 63.4176 504.899 65.4896C502.19 67.5218 498.863 68.5379 494.918 68.5379C491.73 68.5379 488.861 67.8406 486.311 66.446C483.8 65.0115 481.828 62.9992 480.394 60.4092C478.999 57.8191 478.302 54.8306 478.302 51.4436C478.302 48.0168 478.999 45.0084 480.394 42.4183C481.788 39.8283 483.741 37.836 486.251 36.4413C488.761 35.0467 491.65 34.3494 494.918 34.3494C498.066 34.3494 500.875 35.0267 503.345 36.3815C505.856 37.7363 507.788 39.6689 509.143 42.1793C510.538 44.6498 511.235 47.4988 511.235 50.7264ZM502.568 48.3356C502.528 46.1839 501.751 44.4704 500.237 43.1953C498.723 41.8804 496.87 41.2229 494.679 41.2229C492.607 41.2229 490.853 41.8605 489.419 43.1356C488.024 44.3708 487.167 46.1042 486.849 48.3356H502.568ZM536.947 68L525.711 53.8942V68H517.343V23.77H525.711V48.9333L536.828 34.8873H547.706L533.122 51.5034L547.826 68H536.947Z" fill="#590BD8"/>
</svg>
