<svg width="275" height="296" viewBox="0 0 275 296" fill="none" xmlns="http://www.w3.org/2000/svg">
<path d="M270.871 209.63C269.549 205.92 268.004 202.33 266.535 199.003C264.273 193.887 261.903 188.76 259.611 183.805L259.43 183.412C238.989 139.147 217.05 94.2763 194.222 50.0482L193.253 48.1704C190.924 43.6539 188.517 38.9841 186.046 34.3955C183.117 28.5886 179.562 23.1175 175.445 18.0792C170.81 12.5504 165.017 8.10385 158.474 5.0531C151.93 2.00235 144.795 0.421701 137.573 0.422608C130.351 0.423515 123.217 2.00595 116.674 5.05835C110.131 8.11075 104.339 12.5588 99.706 18.0887C95.5937 23.1282 92.0409 28.5981 89.1104 34.4021C86.6184 39.0319 84.1887 43.745 81.8391 48.3031L80.9393 50.0478C58.1107 94.2791 36.1714 139.149 15.7308 183.411L15.433 184.055C13.1808 188.93 10.8523 193.971 8.6276 199.001C7.1575 202.325 5.61465 205.912 4.2913 209.632C0.500995 219.766 -0.706805 230.682 0.776469 241.397C2.34945 252.226 6.72931 262.458 13.4823 271.078C20.2352 279.697 29.127 286.406 39.2768 290.541C46.9432 293.643 55.1404 295.228 63.4127 295.21C66.0113 295.209 68.6076 295.058 71.1887 294.757C81.6512 293.424 91.7418 290.019 100.869 284.744C112.841 278.018 124.664 268.161 137.581 254.076C150.497 268.161 162.321 278.018 174.293 284.744C183.419 290.02 193.51 293.424 203.972 294.757C206.553 295.058 209.15 295.209 211.749 295.21C220.021 295.228 228.217 293.643 235.883 290.541C246.033 286.406 254.925 279.697 261.679 271.078C268.432 262.458 272.812 252.227 274.386 241.397C275.867 230.681 274.659 219.765 270.871 209.63ZM137.581 224.986C121.591 204.718 111.331 185.897 107.731 170.119C106.256 164.206 105.908 158.07 106.704 152.029C107.334 147.601 108.96 143.372 111.462 139.662C114.541 135.669 118.498 132.436 123.026 130.211C127.555 127.987 132.535 126.83 137.582 126.83C142.631 126.831 147.61 127.988 152.138 130.214C156.667 132.438 160.623 135.672 163.701 139.664C166.203 143.377 167.83 147.605 168.46 152.034C169.255 158.078 168.905 164.216 167.428 170.131C163.824 185.907 153.566 204.723 137.581 224.986ZM255.71 238.729C254.61 246.301 251.547 253.455 246.826 259.481C242.104 265.509 235.887 270.201 228.79 273.091C221.613 275.966 213.825 276.985 206.15 276.053C198.171 275.025 190.482 272.4 183.545 268.332C172.889 262.345 162.101 253.155 149.963 239.672C169.287 215.844 181.354 193.881 185.822 174.319C187.833 166.093 188.268 157.562 187.107 149.175C186.053 141.95 183.37 135.057 179.262 129.017C174.448 122.5 168.169 117.202 160.93 113.552C153.691 109.901 145.694 107.999 137.582 107.999C129.472 107.999 121.474 109.9 114.234 113.55C106.995 117.2 100.716 122.497 95.9023 129.013C91.7943 135.052 89.1122 141.942 88.0573 149.166C86.8951 157.55 87.3286 166.076 89.3351 174.3C93.8001 193.87 105.868 215.838 125.199 239.674C113.06 253.155 102.272 262.345 91.6158 268.333C84.679 272.4 76.9905 275.026 69.0117 276.053C61.3353 276.985 53.5474 275.966 46.3707 273.091C39.2738 270.201 33.0567 265.509 28.3351 259.482C23.6136 253.455 20.5515 246.301 19.4521 238.729C18.3947 231.033 19.2946 223.194 22.069 215.936C23.1236 212.971 24.3578 210.062 25.8867 206.606C28.0497 201.716 30.3451 196.746 32.5654 191.94L32.8636 191.294C53.1898 147.281 75.0075 102.66 97.7116 58.6701L98.6153 56.9188C100.927 52.4342 103.317 47.7974 105.729 43.3169C108.036 38.6989 110.828 34.3389 114.058 30.3103C116.921 26.8524 120.513 24.0683 124.579 22.1571C128.645 20.2457 133.083 19.2545 137.577 19.2542C142.071 19.2538 146.51 20.2444 150.575 22.1549C154.641 24.0655 158.234 26.8491 161.097 30.3065C164.33 34.332 167.123 38.6907 169.428 43.3084C171.817 47.749 174.187 52.3441 176.479 56.7875L177.45 58.6721C200.153 102.657 221.97 147.277 242.298 191.298L242.481 191.694C244.74 196.581 247.076 201.632 249.274 206.608C250.805 210.069 252.042 212.981 253.094 215.934C255.867 223.193 256.767 231.032 255.71 238.729Z" fill="#590BD8"/>
</svg>
